<svg width="63" height="67" viewBox="0 0 63 67" fill="none" xmlns="http://www.w3.org/2000/svg">
<rect x="1.24752" y="4.24752" width="60.505" height="60.505" fill="white" stroke="url(#paint0_linear_39_121)" stroke-width="2.49505"/>
<path d="M27.25 56.8941V28.5129H39.8188C41.792 28.5129 43.4408 28.7967 44.7653 29.3643C46.1168 29.9049 47.1439 30.7023 47.8467 31.7564C48.5494 32.7836 48.9008 34.0404 48.9008 35.5271C48.9008 37.1218 48.4954 38.4598 47.6845 39.541C46.9006 40.6222 45.7654 41.379 44.2787 41.8115L44.2382 40.96C45.4545 41.2574 46.5222 41.7574 47.4412 42.4602C48.3873 43.1359 49.1171 43.9739 49.6306 44.974C50.1442 45.947 50.401 47.0552 50.401 48.2986C50.401 49.7312 50.1442 50.9881 49.6306 52.0692C49.1441 53.1504 48.4413 54.0559 47.5223 54.7857C46.6303 55.4885 45.5627 56.0156 44.3193 56.367C43.103 56.7184 41.7515 56.8941 40.2648 56.8941H27.25ZM33.8183 51.0962H39.981C41.1163 51.0962 41.9947 50.8259 42.6164 50.2853C43.2651 49.7447 43.5895 48.9743 43.5895 47.9742C43.5895 47.3526 43.4273 46.8255 43.103 46.393C42.8056 45.9605 42.3732 45.6362 41.8055 45.4199C41.2379 45.2037 40.5622 45.0956 39.7783 45.0956H33.8183V51.0962ZM33.8183 39.8653H38.8863C39.5891 39.8653 40.1837 39.7572 40.6703 39.541C41.1568 39.2977 41.5217 38.9734 41.765 38.5679C42.0353 38.1354 42.1704 37.6354 42.1704 37.0678C42.1704 36.2028 41.8731 35.5271 41.2784 35.0405C40.6838 34.554 39.7918 34.3107 38.6025 34.3107H33.8183V39.8653Z" fill="url(#paint1_linear_39_121)"/>
<path d="M13.5274 41.3V12.9188H25.8124C27.5963 12.9188 29.1911 13.3243 30.5966 14.1351C32.0022 14.946 33.1104 16.0543 33.9213 17.4598C34.7322 18.8383 35.1376 20.4196 35.1376 22.2035C35.1376 24.0145 34.7322 25.6498 33.9213 27.1094C33.1104 28.569 32.0022 29.7178 30.5966 30.5557C29.1911 31.3936 27.5963 31.8126 25.8124 31.8126H20.4605V41.3H13.5274ZM20.3794 25.6903H24.8799C25.4745 25.6903 26.0016 25.5552 26.4611 25.2849C26.9476 24.9876 27.3396 24.5821 27.6369 24.0686C27.9342 23.555 28.0829 22.9739 28.0829 22.3251C28.0829 21.6494 27.9342 21.0683 27.6369 20.5817C27.3396 20.0952 26.9476 19.7168 26.4611 19.4465C26.0016 19.1762 25.4745 19.041 24.8799 19.041H20.3794V25.6903Z" fill="url(#paint2_linear_39_121)"/>
<defs>
<linearGradient id="paint0_linear_39_121" x1="63.765" y1="66" x2="0" y2="3" gradientUnits="userSpaceOnUse">
<stop stop-color="#FD4DF6"/>
<stop offset="1" stop-color="#FDA14D"/>
</linearGradient>
<linearGradient id="paint1_linear_39_121" x1="53.0748" y1="66.8941" x2="8.98609" y2="42.1248" gradientUnits="userSpaceOnUse">
<stop stop-color="#FD4DF6"/>
<stop offset="1" stop-color="#FDA14D"/>
</linearGradient>
<linearGradient id="paint2_linear_39_121" x1="37.3279" y1="51.3" x2="-5.07499" y2="29.1207" gradientUnits="userSpaceOnUse">
<stop stop-color="#FD4DF6"/>
<stop offset="1" stop-color="#FDA14D"/>
</linearGradient>
</defs>
</svg>
